<?xml version="1.0" encoding="iso-8859-1"?>
<!-- Generator: Adobe Illustrator 18.1.1, SVG Export Plug-In . SVG Version: 6.00 Build 0)  -->
<svg version="1.1" id="Capa_1" xmlns="http://www.w3.org/2000/svg" xmlns:xlink="http://www.w3.org/1999/xlink" x="0px" y="0px"
	 viewBox="0 0 35.682 35.682" style="enable-background:new 0 0 35.682 35.682;" xml:space="preserve">
<g>
	<polygon points="27.016,14.047 28.836,14.047 28.836,7.369 28.836,5.549 27.016,5.549 18.029,5.549 18.029,7.369 27.016,7.369 	"/>
	<polygon points="11.092,20.481 9.271,20.481 9.271,28.314 9.271,30.132 11.092,30.132 16.613,30.132 16.613,28.314 11.092,28.314 	
		"/>
	<path d="M19.604,27.112h15.725V16.699H19.604V27.112z M20.338,17.493h14.256v8.825H20.338V17.493z"/>
	<polygon points="35.666,29.083 35.328,27.641 19.535,27.641 19.205,29.083 19.191,29.083 19.191,29.91 35.682,29.91 35.682,29.083 
			"/>
	<path d="M0.412,15.964h15.725V5.549H0.412V15.964z M1.148,6.344h14.256v8.825H1.148V6.344z"/>
	<polygon points="16.475,17.932 16.137,16.492 0.346,16.492 0.016,17.932 0,17.932 0,18.759 16.492,18.759 16.492,17.932 	"/>
	<g>
	</g>
	<g>
	</g>
	<g>
	</g>
	<g>
	</g>
	<g>
	</g>
	<g>
	</g>
	<g>
	</g>
	<g>
	</g>
	<g>
	</g>
	<g>
	</g>
	<g>
	</g>
	<g>
	</g>
	<g>
	</g>
	<g>
	</g>
	<g>
	</g>
</g>
<g>
</g>
<g>
</g>
<g>
</g>
<g>
</g>
<g>
</g>
<g>
</g>
<g>
</g>
<g>
</g>
<g>
</g>
<g>
</g>
<g>
</g>
<g>
</g>
<g>
</g>
<g>
</g>
<g>
</g>
</svg>
